<svg width="59" height="15" viewBox="0 0 59 15" fill="none" xmlns="http://www.w3.org/2000/svg">
<circle cx="2.52456" cy="3.98361" r="1.98361" fill="#000"/>
<circle cx="9.01638" cy="5.96722" r="1.98361" fill="#000"/>
<circle cx="9.01638" cy="11.1967" r="1.98361" fill="#000"/>
<circle cx="1.98361" cy="11.1967" r="1.98361" fill="#000"/>
<path d="M22.5455 6.09375C22.4858 5.88636 22.402 5.70312 22.294 5.54403C22.1861 5.3821 22.054 5.24574 21.8977 5.13494C21.7443 5.02131 21.5682 4.93466 21.3693 4.875C21.1733 4.81534 20.956 4.78551 20.7173 4.78551C20.2713 4.78551 19.8793 4.89631 19.5412 5.1179C19.206 5.33949 18.9446 5.66193 18.7571 6.08523C18.5696 6.50568 18.4759 7.01989 18.4759 7.62784C18.4759 8.2358 18.5682 8.75284 18.7528 9.17898C18.9375 9.60511 19.1989 9.9304 19.5369 10.1548C19.875 10.3764 20.2741 10.4872 20.7344 10.4872C21.152 10.4872 21.5085 10.4134 21.804 10.2656C22.1023 10.1151 22.3295 9.90341 22.4858 9.63068C22.6449 9.35795 22.7244 9.03551 22.7244 8.66335L23.0994 8.71875H20.8494V7.32955H24.5014V8.42898C24.5014 9.19602 24.3395 9.85511 24.0156 10.4062C23.6918 10.9545 23.2457 11.3778 22.6776 11.6761C22.1094 11.9716 21.4588 12.1193 20.7259 12.1193C19.9077 12.1193 19.1889 11.9389 18.5696 11.5781C17.9503 11.2145 17.4673 10.6989 17.1207 10.0312C16.777 9.3608 16.6051 8.56534 16.6051 7.64489C16.6051 6.9375 16.7074 6.30682 16.9119 5.75284C17.1193 5.19602 17.4091 4.72443 17.7812 4.33807C18.1534 3.9517 18.5866 3.65767 19.081 3.45597C19.5753 3.25426 20.1108 3.15341 20.6875 3.15341C21.1818 3.15341 21.642 3.22585 22.0682 3.37074C22.4943 3.51278 22.8722 3.71449 23.2017 3.97585C23.5341 4.23722 23.8054 4.5483 24.0156 4.90909C24.2259 5.26705 24.3608 5.66193 24.4205 6.09375H22.5455ZM28.8107 12.1278C28.1488 12.1278 27.5763 11.9872 27.0934 11.706C26.6133 11.4219 26.2425 11.027 25.9812 10.5213C25.7198 10.0128 25.5891 9.4233 25.5891 8.75284C25.5891 8.0767 25.7198 7.4858 25.9812 6.98011C26.2425 6.47159 26.6133 6.0767 27.0934 5.79545C27.5763 5.51136 28.1488 5.36932 28.8107 5.36932C29.4727 5.36932 30.0437 5.51136 30.5238 5.79545C31.0067 6.0767 31.3789 6.47159 31.6403 6.98011C31.9016 7.4858 32.0323 8.0767 32.0323 8.75284C32.0323 9.4233 31.9016 10.0128 31.6403 10.5213C31.3789 11.027 31.0067 11.4219 30.5238 11.706C30.0437 11.9872 29.4727 12.1278 28.8107 12.1278ZM28.8192 10.7216C29.1204 10.7216 29.3718 10.6364 29.5735 10.4659C29.7752 10.2926 29.9272 10.0568 30.0295 9.75852C30.1346 9.46023 30.1871 9.12074 30.1871 8.74006C30.1871 8.35938 30.1346 8.01989 30.0295 7.72159C29.9272 7.4233 29.7752 7.1875 29.5735 7.0142C29.3718 6.84091 29.1204 6.75426 28.8192 6.75426C28.5153 6.75426 28.2596 6.84091 28.0522 7.0142C27.8477 7.1875 27.6928 7.4233 27.5877 7.72159C27.4854 8.01989 27.4343 8.35938 27.4343 8.74006C27.4343 9.12074 27.4854 9.46023 27.5877 9.75852C27.6928 10.0568 27.8477 10.2926 28.0522 10.4659C28.2596 10.6364 28.5153 10.7216 28.8192 10.7216ZM33.2468 12V3.27273H35.0621V6.55398H35.1175C35.1971 6.37784 35.3121 6.19886 35.4627 6.01705C35.6161 5.83239 35.815 5.67898 36.0593 5.55682C36.3065 5.43182 36.6133 5.36932 36.9798 5.36932C37.457 5.36932 37.8974 5.49432 38.3008 5.74432C38.7042 5.99148 39.0266 6.36506 39.2681 6.86506C39.5096 7.36222 39.6303 7.9858 39.6303 8.7358C39.6303 9.46591 39.5124 10.0824 39.2766 10.5852C39.0437 11.0852 38.7255 11.4645 38.3221 11.723C37.9215 11.9787 37.4727 12.1065 36.9755 12.1065C36.6232 12.1065 36.3235 12.0483 36.0763 11.9318C35.832 11.8153 35.6317 11.669 35.4755 11.4929C35.3192 11.3139 35.1999 11.1335 35.1175 10.9517H35.0366V12H33.2468ZM35.0238 8.72727C35.0238 9.11648 35.0778 9.45597 35.1857 9.74574C35.2937 10.0355 35.4499 10.2614 35.6545 10.4233C35.859 10.5824 36.1076 10.6619 36.4002 10.6619C36.6957 10.6619 36.9457 10.581 37.1502 10.419C37.3548 10.2543 37.5096 10.027 37.6147 9.73722C37.7227 9.4446 37.7766 9.10795 37.7766 8.72727C37.7766 8.34943 37.7241 8.01705 37.619 7.73011C37.5138 7.44318 37.359 7.21875 37.1545 7.05682C36.9499 6.89489 36.6985 6.81392 36.4002 6.81392C36.1048 6.81392 35.8548 6.89205 35.6502 7.0483C35.4485 7.20455 35.2937 7.42614 35.1857 7.71307C35.0778 8 35.0238 8.33807 35.0238 8.72727ZM46.2876 7.32102L44.6257 7.4233C44.5973 7.28125 44.5362 7.15341 44.4425 7.03977C44.3487 6.9233 44.2251 6.83097 44.0717 6.76278C43.9212 6.69176 43.7408 6.65625 43.5305 6.65625C43.2493 6.65625 43.0121 6.71591 42.8189 6.83523C42.6257 6.9517 42.5291 7.10795 42.5291 7.30398C42.5291 7.46023 42.5916 7.59233 42.7166 7.70028C42.8416 7.80824 43.0561 7.89489 43.3601 7.96023L44.5447 8.19886C45.1811 8.32955 45.6555 8.53977 45.968 8.82955C46.2805 9.11932 46.4368 9.5 46.4368 9.97159C46.4368 10.4006 46.3104 10.777 46.0575 11.1009C45.8075 11.4247 45.4638 11.6776 45.0263 11.8594C44.5916 12.0384 44.0902 12.1278 43.522 12.1278C42.6555 12.1278 41.9652 11.9474 41.451 11.5866C40.9396 11.223 40.6399 10.7287 40.5518 10.1037L42.3374 10.0099C42.3913 10.2741 42.522 10.4759 42.7294 10.6151C42.9368 10.7514 43.2024 10.8196 43.5263 10.8196C43.8445 10.8196 44.1001 10.7585 44.2933 10.6364C44.4893 10.5114 44.5888 10.3509 44.5916 10.1548C44.5888 9.99006 44.5192 9.85511 44.3828 9.75C44.2464 9.64205 44.0362 9.55966 43.7521 9.50284L42.6186 9.27699C41.9794 9.14915 41.5036 8.92756 41.1911 8.61222C40.8814 8.29687 40.7266 7.89489 40.7266 7.40625C40.7266 6.9858 40.8402 6.62358 41.0675 6.3196C41.2976 6.01562 41.62 5.78125 42.0348 5.61648C42.4524 5.4517 42.9411 5.36932 43.5007 5.36932C44.3274 5.36932 44.978 5.54403 45.4524 5.89347C45.9297 6.2429 46.2081 6.71875 46.2876 7.32102ZM49.2248 10.1165L49.229 7.93892H49.4933L51.5898 5.45455H53.6737L50.8569 8.74432H50.4265L49.2248 10.1165ZM47.5799 12V3.27273H49.3952V12H47.5799ZM51.6708 12L49.7447 9.14915L50.9549 7.86648L53.7972 12H51.6708ZM58.0458 5.45455V6.81818H54.104V5.45455H58.0458ZM54.9989 3.88636H56.8143V9.98864C56.8143 10.1562 56.8398 10.2869 56.891 10.3807C56.9421 10.4716 57.0131 10.5355 57.104 10.5724C57.1978 10.6094 57.3058 10.6278 57.4279 10.6278C57.5131 10.6278 57.5984 10.6207 57.6836 10.6065C57.7688 10.5895 57.8342 10.5767 57.8796 10.5682L58.1651 11.919C58.0742 11.9474 57.9464 11.9801 57.7816 12.017C57.6168 12.0568 57.4165 12.081 57.1808 12.0895C56.7433 12.1065 56.3597 12.0483 56.0302 11.9148C55.7035 11.7812 55.4492 11.5739 55.2674 11.2926C55.0856 11.0114 54.9961 10.6562 54.9989 10.2273V3.88636Z" fill="#000"/>
</svg>
